<?xml version="1.0" standalone="no"?>
<!DOCTYPE svg PUBLIC "-//W3C//DTD SVG 20010904//EN"
 "http://www.w3.org/TR/2001/REC-SVG-20010904/DTD/svg10.dtd">
<svg version="1.0" xmlns="http://www.w3.org/2000/svg"
 width="980.000000pt" height="980.000000pt" viewBox="0 0 980.000000 980.000000"
 preserveAspectRatio="xMidYMid meet">
<metadata>
Created by potrace 1.14, written by Peter Selinger 2001-2017
</metadata>
<g transform="translate(0.000000,980.000000) scale(0.100000,-0.100000)"
fill="#000000" stroke="none">
<path d="M4708 9335 c-1 -1 -32 -5 -68 -8 -36 -3 -76 -8 -90 -10 -14 -3 -43
-8 -65 -12 -67 -11 -226 -54 -300 -82 -93 -34 -252 -111 -291 -140 -17 -13
-34 -23 -38 -23 -10 0 -143 -99 -194 -144 -81 -73 -202 -199 -202 -211 0 -4
-7 -13 -16 -22 -33 -33 -120 -172 -166 -265 -26 -53 -48 -99 -48 -102 0 -3 -5
-17 -12 -33 -14 -34 -13 -31 -23 -68 -4 -16 -12 -36 -18 -42 -5 -7 -7 -13 -4
-13 3 0 1 -15 -4 -32 -40 -129 -64 -316 -62 -491 1 -141 7 -205 40 -387 3 -19
6 -41 6 -47 0 -7 4 -13 9 -13 4 0 8 -9 8 -19 0 -26 52 -184 97 -296 50 -126
129 -292 196 -413 78 -141 77 -138 125 -210 23 -35 42 -65 42 -68 0 -4 88
-128 120 -168 40 -51 157 -183 175 -197 11 -9 31 -27 45 -39 26 -22 206 -136
295 -185 28 -16 59 -33 70 -39 49 -27 156 -99 153 -102 -2 -2 -69 29 -148 69
-133 66 -204 99 -285 132 -36 15 -236 86 -250 89 -5 2 -30 8 -55 15 -25 8 -52
15 -60 16 -8 2 -15 4 -15 5 0 1 -9 3 -20 4 -11 2 -38 6 -60 11 -127 23 -201
30 -345 30 -130 0 -226 -6 -286 -19 -12 -2 -39 -7 -60 -10 -184 -30 -460 -140
-635 -254 -66 -43 -106 -71 -125 -88 -12 -11 -38 -31 -57 -47 -51 -41 -134
-124 -197 -197 -30 -36 -57 -67 -60 -70 -3 -3 -34 -48 -68 -100 -93 -141 -208
-388 -237 -507 -3 -10 -14 -54 -25 -98 -21 -82 -31 -131 -35 -175 -2 -14 -4
-25 -5 -25 -12 0 -19 -372 -9 -460 17 -150 24 -193 38 -243 5 -18 10 -36 11
-40 4 -25 14 -65 33 -122 12 -36 22 -67 22 -70 1 -3 5 -14 10 -25 4 -11 17
-42 27 -70 92 -237 328 -561 503 -690 22 -17 42 -33 45 -37 11 -14 155 -108
167 -108 6 0 13 -4 15 -9 3 -9 190 -100 248 -121 19 -6 44 -16 55 -20 22 -9
94 -33 110 -36 6 -1 39 -9 74 -19 35 -9 76 -18 90 -20 14 -2 37 -6 51 -9 110
-21 198 -28 355 -28 117 0 224 6 265 15 8 2 33 8 55 12 46 10 41 9 80 20 17 4
35 10 40 14 6 3 12 6 15 7 3 0 12 3 20 7 8 3 44 15 80 27 36 12 74 26 85 31
75 32 278 59 291 38 3 -5 10 -7 15 -4 9 6 102 -39 125 -60 6 -5 26 -21 44 -35
18 -14 47 -37 64 -52 17 -15 39 -30 49 -34 9 -3 17 -9 17 -13 0 -8 71 -39 107
-45 12 -3 19 2 20 12 5 48 46 178 68 217 15 25 49 65 77 90 49 44 160 105 192
105 9 0 16 8 16 19 0 22 -48 113 -100 193 -74 111 -93 212 -59 328 7 25 14 52
15 60 5 23 84 217 143 348 28 62 52 120 53 130 2 9 5 19 8 22 6 5 38 107 46
143 18 83 20 119 18 257 -1 85 -4 169 -7 185 -9 46 -19 118 -21 140 -1 11 -4
25 -8 30 -3 6 -9 30 -13 55 -14 88 -96 313 -169 463 -70 142 -137 269 -156
292 -13 17 -50 85 -45 85 7 0 129 -161 184 -243 74 -110 146 -253 198 -392 25
-66 47 -127 49 -135 2 -8 8 -35 15 -60 15 -61 18 -79 25 -120 3 -19 7 -42 10
-50 21 -74 20 -361 -2 -475 -2 -10 -6 -37 -10 -59 -3 -21 -14 -63 -25 -92 -11
-30 -20 -57 -21 -61 0 -5 -6 -19 -13 -33 -15 -27 -81 -173 -90 -200 -2 -6 -29
-70 -49 -115 -17 -38 -49 -134 -53 -160 -2 -11 -5 -58 -8 -103 -4 -77 -2 -88
25 -141 25 -51 50 -87 116 -172 10 -13 134 -139 274 -280 140 -141 275 -280
300 -309 25 -29 55 -64 68 -78 12 -14 22 -28 22 -31 0 -3 10 -18 23 -32 24
-28 44 -56 54 -79 3 -8 15 -27 25 -42 11 -16 16 -28 12 -28 -3 0 -2 -6 4 -13
15 -18 42 -99 48 -149 7 -49 7 -51 5 -58 -2 -3 -3 -23 -5 -45 -3 -49 -34 -145
-47 -145 -6 0 -8 -4 -5 -9 4 -5 -24 -40 -61 -78 -64 -65 -163 -127 -219 -138
-10 -2 -19 -4 -19 -5 0 -4 -47 -11 -95 -14 -142 -8 -250 68 -299 210 -16 48
-19 78 -16 159 4 112 2 99 50 350 33 170 38 308 15 390 -14 51 -60 109 -103
131 -44 23 -126 29 -167 12 -52 -22 -96 -63 -120 -112 -29 -60 -31 -73 -36
-221 -2 -71 -7 -146 -11 -165 -3 -19 -7 -42 -8 -50 -1 -8 -8 -35 -15 -60 -7
-25 -14 -49 -16 -55 -1 -5 -13 -39 -27 -75 -39 -102 -84 -239 -102 -310 -18
-70 -24 -230 -11 -295 7 -37 59 -155 88 -200 24 -37 148 -155 163 -155 8 0 15
-4 15 -9 0 -15 168 -85 232 -96 13 -2 37 -7 53 -11 40 -9 310 -10 355 -1 19 4
49 9 65 12 141 26 333 107 450 190 75 53 159 143 216 230 55 85 129 269 145
359 3 17 9 47 14 66 5 19 11 55 15 80 12 103 18 156 19 173 0 9 8 17 18 17 25
0 22 -1 80 17 60 17 125 48 146 69 7 8 17 14 21 14 10 0 117 104 151 146 30
38 49 68 67 109 8 17 18 37 22 45 32 60 52 204 38 266 -11 45 -36 91 -68 123
-34 34 -115 77 -157 84 -32 5 -37 15 -20 34 30 33 88 166 104 234 29 126 33
164 29 299 -1 80 -6 156 -9 170 -3 14 -7 41 -10 60 -6 44 -14 87 -32 174 -8
38 -12 71 -9 74 2 3 15 6 27 7 35 2 140 25 168 36 14 5 37 12 51 14 15 3 40
12 55 20 16 8 36 15 45 15 9 0 19 3 23 7 4 5 11 8 14 9 4 0 50 21 102 47 277
137 478 281 708 507 76 75 195 229 259 335 27 45 82 165 94 206 7 24 15 46 19
49 3 3 6 12 6 20 1 8 5 29 9 45 3 17 8 72 10 122 4 118 -22 244 -65 313 -5 8
-16 29 -23 45 -8 17 -36 57 -62 90 -126 154 -272 253 -429 290 -58 14 -285 15
-356 1 -14 -2 -41 -7 -60 -10 -19 -4 -46 -8 -60 -11 -14 -2 -41 -6 -60 -9 -19
-3 -55 -8 -80 -11 -48 -8 -113 -13 -171 -14 -36 -1 -37 -2 -48 -53 -6 -29 -13
-60 -15 -68 -17 -67 -24 -239 -12 -298 15 -72 33 -110 66 -139 51 -47 168 -30
362 52 21 8 41 16 45 16 5 1 25 10 46 20 20 11 37 17 37 14 0 -2 12 0 27 6 15
5 46 12 69 14 24 3 47 5 51 6 22 4 73 -16 100 -39 30 -28 68 -82 57 -82 -4 0
-2 -6 4 -12 20 -25 8 -110 -26 -178 -40 -81 -156 -199 -268 -271 -82 -54 -231
-120 -326 -144 -10 -3 -28 -8 -40 -11 -66 -17 -113 -27 -193 -39 -75 -12 -278
-12 -354 1 -211 34 -361 132 -439 288 -18 36 -31 70 -27 76 3 5 2 10 -4 10
-10 0 -8 175 3 219 15 63 40 141 67 210 31 77 168 362 179 371 24 20 187 380
229 505 48 145 81 254 87 285 2 8 7 31 13 50 16 55 41 162 47 200 3 19 8 42
11 50 3 8 7 24 8 35 4 28 14 86 19 114 3 13 8 49 11 80 4 31 8 70 10 86 22
164 22 571 0 645 -2 8 -7 35 -10 60 -3 25 -8 52 -10 60 -2 8 -7 31 -10 50 -16
94 -80 289 -132 398 -103 219 -265 428 -453 584 -154 128 -396 266 -615 351
-77 30 -205 72 -212 69 -2 0 -17 4 -35 10 -38 11 -101 26 -141 33 -91 14 -115
18 -147 21 -47 6 -347 13 -352 9z m-138 -2825 c186 -173 240 -230 240 -260 0
-5 3 -10 8 -10 4 0 13 -12 19 -27 51 -116 53 -125 58 -217 4 -65 -6 -100 -38
-134 -24 -26 -84 -55 -97 -47 -5 3 -11 1 -14 -4 -3 -4 -18 -7 -33 -5 -16 1
-49 5 -74 7 -65 7 -132 40 -182 90 -41 42 -93 132 -102 177 -2 12 -7 31 -11
43 -11 34 -12 202 -2 254 5 26 11 57 12 68 4 26 21 68 53 132 31 62 18 67 163
-67z m-1045 -973 c11 -3 20 -6 20 -7 0 -2 20 -6 60 -13 45 -7 178 -56 190 -69
6 -6 6 -9 0 -5 -33 18 -598 30 -710 15 -94 -12 -209 -40 -287 -68 -43 -16 -78
-26 -78 -22 0 4 -4 2 -8 -4 -4 -6 -36 -25 -72 -43 -104 -51 -192 -104 -224
-133 -11 -10 -23 -18 -26 -18 -4 0 -16 -8 -28 -17 -11 -10 -33 -27 -48 -38
-16 -11 -35 -27 -44 -35 -9 -8 -38 -33 -65 -55 -63 -51 -59 -47 -210 -195 -76
-75 -119 -112 -108 -93 10 18 21 33 26 33 4 0 7 5 7 10 0 6 24 41 53 78 118
152 247 280 363 361 27 19 51 38 54 41 6 7 178 110 185 110 2 0 37 16 78 35
42 19 88 37 104 41 15 4 33 10 38 14 12 9 209 61 222 59 4 -1 10 0 13 1 11 4
48 10 100 16 30 3 57 8 59 10 5 5 312 -3 336 -9z m387 -133 c15 -8 32 -14 38
-14 11 0 119 -52 208 -101 23 -12 42 -26 42 -31 0 -4 5 -8 10 -8 6 0 16 -4 23
-10 7 -5 39 -31 72 -57 74 -59 174 -160 229 -233 22 -30 44 -56 49 -58 4 -2 7
-8 7 -14 0 -6 11 -25 24 -42 31 -41 129 -246 154 -321 44 -136 65 -224 80
-340 9 -69 8 -370 -1 -425 -14 -89 -17 -105 -23 -130 -3 -14 -8 -36 -11 -50
-2 -13 -20 -71 -40 -129 -41 -122 -110 -260 -184 -367 -56 -81 -223 -256 -304
-320 -27 -21 -56 -45 -63 -52 -8 -7 -27 -19 -43 -27 -16 -9 -29 -20 -29 -25 0
-6 -4 -10 -9 -10 -5 0 -45 -22 -88 -48 -275 -169 -560 -241 -813 -208 -25 4
-56 10 -70 15 -14 5 -38 12 -54 16 -15 3 -27 8 -24 10 5 5 52 13 118 20 30 3
71 8 91 10 20 3 54 8 75 10 60 7 156 22 198 31 11 3 32 7 46 10 14 3 43 10 65
16 22 6 45 11 50 12 79 15 300 113 377 167 14 11 31 19 36 19 5 0 12 7 16 15
3 8 12 15 21 15 8 0 15 5 15 10 0 6 8 14 18 17 9 4 51 41 92 82 109 109 132
177 142 428 2 40 6 73 11 73 4 0 6 3 5 8 -6 27 65 112 81 96 3 -3 6 -35 6 -71
1 -39 5 -68 12 -70 6 -2 27 11 47 30 20 19 36 32 36 29 0 -17 80 121 91 156 7
23 16 42 21 42 4 0 7 3 6 8 -1 4 3 32 10 62 20 96 25 152 25 255 0 120 -16
276 -39 375 -3 14 -7 34 -9 45 -2 11 -4 21 -5 23 -2 1 -3 5 -4 10 -24 90 -92
278 -111 302 -6 8 -16 26 -22 40 -18 41 -80 106 -117 124 -34 16 -86 21 -150
14 -27 -3 -30 0 -46 60 -9 34 -16 62 -14 62 2 0 -6 26 -18 58 -34 92 -70 138
-146 186 -40 25 -42 25 -52 7 -5 -11 -10 -27 -10 -35 0 -9 -5 -16 -11 -16 -5
0 -8 -4 -5 -9 9 -14 -50 -87 -83 -104 -25 -13 -34 -13 -56 -1 -43 22 -61 49
-85 128 -14 44 -9 187 9 229 12 30 24 30 83 1z m-794 -361 c33 -30 36 -69 8
-98 -65 -65 -153 18 -100 93 19 27 63 29 92 5z m-332 -270 c35 -22 64 -84 64
-134 0 -142 -192 -185 -253 -56 -30 63 -23 124 20 169 46 48 115 56 169 21z
m-631 -255 c-2 -18 -3 -36 -4 -40 -2 -12 -71 -9 -72 2 -1 6 -1 21 -1 35 0 14
0 27 1 30 1 3 18 5 40 5 37 0 38 -1 36 -32z m1201 -5 c-1 -37 -2 -38 -41 -38
-38 0 -40 2 -40 30 -1 43 2 45 44 45 37 0 38 -1 37 -37z m801 -63 c1 -14 -12
-23 -58 -39 -32 -11 -60 -17 -62 -13 -2 6 -1 104 2 109 1 1 27 -7 59 -18 42
-14 58 -25 59 -39z m-2369 -50 c-1 -44 -6 -80 -11 -80 -19 0 -47 22 -47 36 0
15 50 124 57 124 2 0 2 -36 1 -80z m1814 -82 c15 -12 24 -42 18 -60 -1 -5 -3
-11 -4 -15 -3 -22 -48 -84 -57 -81 -17 6 -35 68 -32 108 3 33 24 60 48 60 6 0
18 -6 27 -12z m-892 -48 c-1 -6 -94 -70 -103 -70 -6 0 3 36 21 82 11 26 11 26
46 10 20 -9 36 -19 36 -22z m1573 -54 c27 -25 31 -35 27 -70 -5 -52 -89 -72
-118 -28 -17 26 -18 85 -2 126 9 25 11 26 37 12 16 -8 40 -25 56 -40z m-1264
-43 c12 -13 16 -42 12 -84 0 -9 -17 -24 -36 -33 -30 -15 -39 -15 -62 -4 -28
14 -47 60 -37 91 3 10 19 27 36 37 31 19 63 16 87 -7z m-1243 -49 c55 -101 75
-188 80 -364 12 -431 12 -425 38 -525 8 -27 15 -57 17 -65 2 -8 14 -33 26 -57
24 -48 15 -58 -15 -15 -22 30 -59 102 -61 117 -1 6 -8 20 -16 31 -13 21 -50
125 -60 172 -3 12 -7 32 -10 45 -13 55 -22 106 -30 167 -17 127 -26 562 -11
557 5 -2 24 -30 42 -63z m1448 -199 c-4 -8 -10 -15 -14 -15 -5 0 -11 -8 -15
-19 -3 -10 -14 -28 -24 -40 -17 -20 -19 -20 -35 -2 -15 16 -15 19 1 33 16 14
84 58 90 58 1 0 0 -7 -3 -15z m656 -250 c52 -17 88 -76 85 -139 -1 -28 -7 -52
-13 -54 -7 -2 -12 -10 -12 -17 0 -21 -77 -54 -113 -48 -66 9 -117 67 -120 135
-2 57 22 94 74 117 41 19 58 20 99 6z m-1605 -63 c17 -12 32 -56 28 -81 -7
-50 -76 -68 -113 -31 -46 46 -15 120 49 120 14 0 31 -4 36 -8z m561 -142 c0
-40 0 -40 -38 -40 -21 0 -39 5 -39 10 -9 66 -7 70 39 70 37 0 38 -1 38 -40z
m349 -65 c60 -59 10 -123 -86 -110 -27 4 -52 11 -55 16 -9 14 35 84 64 102 36
22 49 21 77 -8z m-577 -82 c85 -53 78 -193 -13 -243 -61 -33 -140 -19 -176 31
-11 16 -17 29 -13 29 3 0 2 6 -3 13 -17 21 -7 100 17 132 45 61 125 77 188 38z
m-413 -295 c0 -84 -4 -159 -8 -165 -10 -15 -47 -17 -47 -3 0 6 -8 10 -17 10
-20 0 -65 59 -80 105 -5 17 -8 44 -6 60 4 29 35 82 57 98 32 22 92 54 97 51 3
-1 5 -72 4 -156z m1670 106 c26 -11 38 -52 20 -71 -27 -26 -76 -22 -122 10
-23 17 -40 34 -37 38 12 20 106 35 139 23z m-510 -56 c-2 -18 -3 -37 -4 -41 0
-5 -18 -7 -38 -5 -34 3 -37 6 -38 33 -2 42 1 45 44 45 37 0 38 -1 36 -32z
m-1385 -28 c0 -5 -2 -10 -4 -10 -3 0 -8 5 -11 10 -3 6 -1 10 4 10 6 0 11 -4
11 -10z m3705 -17 c11 -4 25 -8 31 -9 26 -4 103 -61 150 -110 89 -93 142 -220
121 -294 -31 -113 -130 -142 -245 -72 -219 133 -335 389 -213 469 45 29 98 34
156 16z m-2650 -163 c3 -4 -16 -21 -42 -36 -27 -15 -52 -32 -56 -38 -12 -15
-1 33 18 76 15 36 15 37 45 22 16 -9 32 -19 35 -24z m-388 -259 c0 -54 -1 -59
-20 -55 -77 14 -122 49 -94 73 13 10 83 38 103 40 6 1 11 -22 11 -58z m225
-83 c23 -13 45 -26 48 -29 3 -3 20 -12 38 -20 17 -8 32 -17 32 -21 0 -5 6 -8
14 -8 8 0 18 -5 22 -11 6 -10 -74 -6 -131 6 -11 3 -31 7 -45 9 -79 13 -128 58
-94 83 26 19 67 16 116 -9z m3625 -282 c4 -35 -1 -52 -21 -85 -15 -23 -38 -47
-51 -53 -14 -6 -25 -15 -25 -19 0 -4 -7 -9 -15 -12 -11 -5 -12 -1 -5 19 20 51
102 205 108 200 3 -3 7 -25 9 -50z"/>
<path d="M1785 6069 c-16 -5 -41 -10 -55 -12 -53 -8 -135 -48 -180 -88 -40
-36 -91 -109 -84 -121 3 -4 1 -8 -4 -8 -5 0 -9 -6 -10 -12 0 -7 -3 -29 -6 -48
-7 -41 -8 -127 -2 -155 20 -94 62 -178 114 -230 37 -37 113 -87 142 -93 69
-14 135 5 178 53 31 34 68 123 73 180 4 40 18 58 34 45 6 -5 35 -12 64 -14 29
-2 55 -6 57 -9 8 -8 141 21 176 39 36 18 68 48 68 63 0 5 5 11 10 13 17 5 14
91 -5 148 -21 64 -107 155 -180 189 -80 38 -90 42 -105 45 -8 2 -32 6 -52 10
-52 11 -197 14 -233 5z"/>
<path d="M2039 2413 c-6 -89 27 -254 70 -356 11 -26 20 -50 20 -52 1 -3 5 -11
11 -18 5 -6 28 -39 49 -72 98 -150 261 -269 474 -346 42 -15 77 -26 77 -23 0
3 8 0 18 -5 16 -9 48 -16 122 -27 19 -3 55 -10 80 -14 49 -10 409 -6 450 4 13
3 42 8 65 12 62 9 123 23 200 46 39 12 75 22 80 24 37 7 234 96 302 136 148
87 252 206 256 293 1 19 5 35 8 35 13 0 -3 75 -22 106 -10 17 -31 36 -46 43
-32 15 -150 15 -188 1 -14 -5 -36 -12 -48 -14 -12 -3 -69 -21 -127 -39 -118
-39 -178 -57 -200 -61 -8 -1 -33 -8 -55 -14 -22 -6 -53 -14 -70 -16 -16 -3
-41 -8 -55 -11 -14 -3 -38 -8 -55 -10 -16 -3 -39 -7 -51 -9 -35 -7 -127 -19
-159 -20 -16 -1 -35 -5 -42 -9 -6 -4 -14 -3 -18 3 -4 6 -11 8 -16 4 -19 -11
-197 -4 -282 12 -23 5 -46 9 -52 10 -5 0 -23 6 -38 12 -16 7 -32 12 -36 12
-13 0 -129 59 -174 87 -57 37 -78 50 -104 64 -13 7 -23 16 -23 21 0 4 -6 8
-14 8 -8 0 -16 3 -18 8 -5 10 -66 52 -77 52 -5 0 -11 4 -13 8 -5 13 -146 85
-203 104 -92 31 -95 31 -96 11z"/>
<path d="M5399 2028 c0 -2 -2 -23 -5 -48 -8 -79 -35 -190 -94 -382 -5 -16 -6
-28 -3 -28 3 0 0 -7 -7 -15 -7 -8 -10 -15 -7 -15 3 0 1 -17 -5 -37 -21 -77
-25 -184 -7 -231 6 -15 10 -28 10 -29 -4 -13 69 -62 103 -70 29 -7 146 -7 176
0 14 3 34 8 45 11 66 14 157 93 198 171 16 31 21 58 21 120 1 95 -5 124 -33
188 -18 42 -65 118 -96 154 -49 60 -155 153 -173 153 -6 0 -12 3 -14 8 -5 11
-107 58 -109 50z"/>
</g>
</svg>
